# xmcd CD database file
#
# Track frame offsets:
#	150
#	23322
#	41925
#	63365
#	82472
#	96953
#	108621
#	127132
#	136431
#	158353
#	191354
#	216536
#
# Disc length: 3081 seconds
#
# Revision: 0
# Processed by: cddbd v1.4PL0 Copyright (c) Steve Scherf et al.
# Submitted via: CDex 1.50
#
DISCID=ae0c070c
DTITLE=A perfect circle - Thirteenth Step
DYEAR=1900
DGENRE=New Age
TTITLE0=A Perfect Circle - Gravity
TTITLE1=A Perfect Circle - The Outsider
TTITLE2=A Perfect Circle - Weak and Powerless (clip)
TTITLE3=A Perfect Circle - Thirteenth Step - 04 - Blue
TTITLE4=A Perfect Circle - A Stranger
TTITLE5=A Perfect Circle - Crimes
TTITLE6=A Perfect Circle - The Nurse Who Loved Me
TTITLE7=A Perfect Circle - Lullaby
TTITLE8=A Perfect Circle - Vanishing
TTITLE9=A Perfect Circle~Thirteenth step - 01-The Package
TTITLE10=A Perfect Circle - 7-30-03 - Lullabye/Pet - tooldvn
TTITLE11=A Perfect Circle - Weak And Powerless
EXTD=
EXTT0=
EXTT1=
EXTT2=
EXTT3=
EXTT4=
EXTT5=
EXTT6=
EXTT7=
EXTT8=
EXTT9=
EXTT10=
EXTT11=
PLAYORDER=
